<?xml version="1.0" standalone="no"?>
<!DOCTYPE svg PUBLIC "-//W3C//DTD SVG 1.1//EN" "http://www.w3.org/Graphics/SVG/1.1/DTD/svg11.dtd" >
<svg xmlns="http://www.w3.org/2000/svg">
<metadata>
<json>
<![CDATA[
{
	"fontFamily": "icomoon",
	"description": "Font generated by IcoMoon.",
	"majorVersion": 1,
	"minorVersion": 0,
	"version": "Version 1.0",
	"fontId": "icomoon",
	"psName": "icomoon",
	"subFamily": "Regular",
	"fullName": "icomoon"
}
]]>
</json>
</metadata>
<defs>
<font id="icomoon" horiz-adv-x="1024">
<font-face units-per-em="1024" ascent="960" descent="-64" />
<missing-glyph horiz-adv-x="1024" />
<glyph unicode="&#x20;" horiz-adv-x="512" d="" />
<glyph unicode="&#xe6;" glyph-name="chevron-thin-right" data-tags="chevron-thin-right" d="M678.4 460.8l-365.619 379.904c-13.722 13.824-13.722 36.198 0 50.125 13.722 13.824 35.891 13.824 49.613 0l400.896-404.89c13.722-13.875 13.722-36.301 0-50.125l-400.896-404.89c-13.722-13.875-35.891-13.824-49.613 0-13.722 13.773-13.722 36.198 0 50.125l365.619 379.75z" />
<glyph unicode="&#xe60;" glyph-name="chevron-thin-left" data-tags="chevron-thin-left" d="M711.219 80.998c13.722-13.926 13.722-36.301 0-50.125s-35.891-13.875-49.613 0l-400.896 404.89c-13.722 13.824-13.722 36.198 0 50.125l400.896 404.89c13.722 13.824 35.891 13.824 49.613 0 13.722-13.875 13.722-36.301 0-50.125l-365.619-379.853 365.619-379.802z" />
<glyph unicode="&#xe600;" glyph-name="calendar" data-tags="calendar" d="M864-32h-704c-35.328 0-64 28.672-64 64v640c0 35.328 28.672 64 64 64h64v128c0 35.328 28.672 64 64 64h64c35.328 0 64-28.64 64-64v-128h192v128c0 35.328 28.672 64 64 64h64c35.328 0 64-28.64 64-64v-128h64c35.328 0 64-28.672 64-64v-640c0-35.328-28.672-64-64-64zM544 32h128v128h-128v-128zM544 224h128v128h-128v-128zM160 32h128v128h-128v-128zM160 224h128v128h-128v-128zM160 544v-128h128v128h-128zM352 832c0 17.664-14.336 32-32 32s-32-14.304-32-32v-192c0-17.696 14.336-32 32-32s32 14.336 32 32v192zM480 544h-128v-128h128v128zM480 352h-128v-128h128v128zM480 160h-128v-128h128v128zM544 544v-128h128v128h-128zM736 832c0 17.664-14.336 32-32 32s-32-14.336-32-32v-192c0-17.696 14.336-32 32-32s32 14.336 32 32v192zM864 544h-128v-128h128v128zM864 352h-128v-128h128v128zM864 160h-128v-128h128v128z" />
<glyph unicode="&#xe601;" glyph-name="list" data-tags="list" d="M927.36 640l-512-512c-26.432-26.336-37.536-26.336-64 0l-256 256c-24.768 24.672-24.768 39.328 0 64l64 64c24.8 24.672 39.2 24.672 64 0l160-160 416 416c26.432 26.336 37.568 26.336 64 0l64-64c26.464-26.304 26.464-37.696 0-64z" />
<glyph unicode="&#xe602;" glyph-name="star-full" data-tags="star-full" d="M1024 562.95l-353.78 51.408-158.22 320.582-158.216-320.582-353.784-51.408 256-249.538-60.432-352.352 316.432 166.358 316.432-166.358-60.434 352.352 256.002 249.538z" />
<glyph unicode="&#xe603;" glyph-name="close" data-tags="close" d="M992 832l-96 96-384-384-384 384-96-96 384-384-384-384 96-96 384 384 384-384 96 96-384 384z" />
<glyph unicode="&#xe604;" glyph-name="star-half" data-tags="star-half" d="M1024 562.95l-353.78 51.408-158.22 320.582-158.216-320.582-353.784-51.408 256-249.538-60.432-352.352 316.432 166.358 316.432-166.358-60.434 352.352 256.002 249.538zM512 206.502l-0.942-0.496 0.942 570.768 111.736-226.396 249.836-36.304-180.788-176.222 42.678-248.83-223.462 117.48z" />
<glyph unicode="&#xe605;" glyph-name="down" data-tags="down" d="M896 736l-384-384-384 384-96-96.032 480-479.968 480 480z" />
<glyph unicode="&#xe606;" glyph-name="load" data-tags="load" d="M800.416 448l-112.672 76.8c-29.696 67.68-96.864 115.2-175.552 115.2-106.112 0-192.128-85.984-192.128-192 0-106.048 86.016-192 192.128-192 99.968 0 182.016 76.256 191.232 173.728l96.992-77.728 95.68 88.352c-4.096-208.512-174.24-376.352-383.904-376.352-212.224 0-384.288 171.936-384.288 384s172.064 384 384.288 384c185.824 0 340.032-132.064 375.712-307.2l-87.488-76.8z" />
<glyph unicode="&#xe607;" glyph-name="mail" data-tags="mail" d="M96 601.6v-358.4c0-36.768 13.696-51.2 52-51.2h728c38.304 0 52 14.432 52 51.2v358.4l-416-204.8-416 204.8zM876 704h-728c-38.304 0-52-14.432-52-51.2v-25.6l416-204.8 416 204.8v25.6c0 36.768-13.696 51.2-52 51.2z" />
<glyph unicode="&#xe608;" glyph-name="menu" data-tags="menu" d="M928 864h-832c-16.64 0-32-14.528-32-32v-128c0-18.496 15.36-32 32-32h832c18.624 0 32 14.496 32 32v128c0 17.472-14.368 32-32 32zM928 544h-832c-16.64 0-32-14.528-32-32v-128c0-18.496 15.36-32 32-32h832c18.624 0 32 14.496 32 32v128c0 17.472-14.368 32-32 32zM928 224h-832c-16.64 0-32-14.528-32-32v-128c0-18.496 15.36-32 32-32h832c18.624 0 32 14.496 32 32v128c0 17.472-14.368 32-32 32z" />
<glyph unicode="&#xe609;" glyph-name="mobile" data-tags="mobile" d="M640 0h-256c-70.688 0-128 57.312-128 128v576c0 70.688 57.312 128 128 128h192v32c0 17.664 14.336 32 32 32s32-14.336 32-32v-32c70.688 0 128-57.312 128-128v-576c0-70.688-57.312-128-128-128zM512 64c35.328 0 64 28.64 64 64s-28.672 64-64 64-64-28.672-64-64 28.672-64 64-64zM432 768c-8.832 0-16-7.168-16-16s7.168-16 16-16c8.832 0 16 7.168 16 16s-7.168 16-16 16zM496 768c-8.832 0-16-7.168-16-16s7.168-16 16-16h96c8.832 0 16 7.168 16 16s-7.168 16-16 16h-96zM704 640c0 17.664-14.336 32-32 32h-320c-17.664 0-32-14.304-32-32v-384c0-17.696 14.336-32 32-32h320c17.664 0 32 14.336 32 32v384z" />
<glyph unicode="&#xe60a;" glyph-name="info2" data-tags="info" d="M564.064 701.824c40 36.992 40 111.008 0 160s-91.008 48-128 0-40-124 0-160 88-37.024 128 0zM756.064 157.824c-63.008 0-160 0-160 0s0 400.992 0 416-16.992 32-32 32-159.008 0-224 0-64.992-160 0-160 96 0 96 0v-288h-160c-75.744 0-74.016-160 0-160 0 0 415.008 0 480 0s63.008 160 0 160z" />
<glyph unicode="&#xe60b;" glyph-name="left" data-tags="left" d="M800 832l-96 96-480-480.032 480-479.968 96 96-384 384z" />
<glyph unicode="&#xe60c;" glyph-name="search" data-tags="search" d="M905.44 54.592c-31.616-31.616-100.672-29.6-132.256 2.016l-130.272 130.24c-55.232-33.728-112.896-52.096-182.336-52.096-201.216 0-364.704 163.52-364.704 364.704 0 201.216 163.488 364.704 364.704 364.704s364.704-163.488 364.704-364.704c0-69.44-18.368-127.104-52.096-182.368l130.24-130.24c31.616-31.616 33.632-100.672 2.016-132.256zM460.576 733.92c-134.144 0-234.464-100.32-234.464-234.464s100.32-234.464 234.464-234.464c134.112 0 234.464 100.32 234.464 234.464s-100.352 234.464-234.464 234.464z" />
<glyph unicode="&#xe60d;" glyph-name="star-empty" data-tags="star-empty" d="M1024 562.95l-353.78 51.408-158.22 320.582-158.216-320.582-353.784-51.408 256-249.538-60.432-352.352 316.432 166.358 316.432-166.358-60.434 352.352 256.002 249.538zM512 206.502l-223.462-117.48 42.676 248.83-180.786 176.222 249.84 36.304 111.732 226.396 111.736-226.396 249.836-36.304-180.788-176.222 42.678-248.83-223.462 117.48z" />
<glyph unicode="&#xe611;" glyph-name="pencil" data-tags="pencil" d="M864 960c88.364 0 160-71.634 160-160 0-36.020-11.91-69.258-32-96l-64-64-224 224 64 64c26.742 20.090 59.978 32 96 32zM64 224l-64-288 288 64 592 592-224 224-592-592zM715.578 596.422l-448-448-55.156 55.156 448 448 55.156-55.156z" />
<glyph unicode="&#xe612;" glyph-name="right" data-tags="right" d="M800 448l-480 480-96-96 384-384-384-384 96-96 479.968 479.968z" />
<glyph unicode="&#xe613;" glyph-name="magny" data-tags="magny" d="M765.632 246.784c60.256 72.064 96.64 164.768 96.64 266.080 0 229.28-185.856 415.136-415.136 415.136s-415.136-185.856-415.136-415.136 185.856-415.136 415.136-415.136c101.28 0 193.984 36.352 266.048 96.608l226.368-226.336 52.448 52.448-226.368 226.336zM448.128 159.616c-194.528 0-352.224 157.696-352.224 352.224s157.696 352.224 352.224 352.224c194.56 0 352.256-157.696 352.256-352.224s-157.728-352.224-352.256-352.224z" />
<glyph unicode="&#xe616;" glyph-name="up" data-tags="up" d="M992 256l-480 480-480-480 96-96 384 384 384-384z" />
<glyph unicode="&#xe618;" glyph-name="home" data-tags="home" d="M896 352c-18.56-18.56-45.44-18.56-64 0l-320 320-320-320c-18.56-18.56-45.44-18.56-64 0s-18.56 45.44 0 64l320 320c0 0 24 32 64 32s64-32 64-32l96-96v96h96v-192l128-128c18.56-18.56 18.56-45.44 0-64zM224 320l288 288 288-288v-128c0-35.328-28.672-64-64-64h-160v192h-128v-192h-160c-35.328 0-64 28.672-64 64v128z" />
<glyph unicode="&#xe901;" glyph-name="bergbahn" data-tags="bergbahn" d="M891.482 757.609c-2.409 7.228-9.638 12.047-16.866 9.638l-310.814-62.645c-7.228 14.456-24.094 24.094-40.96 24.094-24.094 0-43.369-19.275-45.779-40.96l-332.499-67.464c-7.228-2.409-12.047-9.638-9.638-16.866s7.228-12.047 14.456-12.047c0 0 2.409 0 2.409 0l330.089 69.873c2.409-4.819 7.228-9.638 12.047-14.456v-156.612h-190.344c-31.322 0-57.826-26.504-57.826-57.826v-248.169c0-31.322 26.504-57.826 57.826-57.826h433.694c31.322 0 57.826 26.504 57.826 57.826v248.169c0 31.322-26.504 57.826-57.826 57.826h-187.934v156.612c9.638 7.228 16.866 19.275 19.275 31.322l310.814 65.054c7.228 0 12.047 7.228 12.047 14.456zM419.238 309.459c0-7.228-4.819-12.047-12.047-12.047h-106.014c-7.228 0-12.047 4.819-12.047 12.047v132.518c0 7.228 4.819 12.047 12.047 12.047h106.014c7.228 0 12.047-4.819 12.047-12.047v-132.518zM628.856 441.976c0 7.228 4.819 12.047 12.047 12.047h106.014c7.228 0 12.047-4.819 12.047-12.047v-132.518c0-7.228-4.819-12.047-12.047-12.047h-108.424c-7.228 0-12.047 4.819-12.047 12.047v132.518zM578.259 454.024c7.228 0 12.047-4.819 12.047-12.047v-132.518c0-7.228-4.819-12.047-12.047-12.047h-108.424c-7.228 0-12.047 4.819-12.047 12.047v132.518c0 7.228 4.819 12.047 12.047 12.047h108.424z" />
<glyph unicode="&#xe902;" glyph-name="familienzimmer" data-tags="familienzimmer" d="M698.729 726.287c33.732 0 62.645-28.913 62.645-62.645s-28.913-62.645-62.645-62.645-62.645 28.913-62.645 62.645 28.913 62.645 62.645 62.645zM448.151 796.16c38.551 0 69.873-31.322 69.873-69.873s-31.322-69.873-69.873-69.873c-38.551 0-69.873 31.322-69.873 69.873s31.322 69.873 69.873 69.873zM310.814 482.936c28.913 0 53.007-24.094 53.007-53.007s-24.094-53.007-53.007-53.007-53.007 24.094-53.007 53.007 24.094 53.007 53.007 53.007zM373.459 217.901v-101.195c0-9.638-7.228-16.866-16.866-16.866h-4.819c-9.638 0-16.866 7.228-16.866 16.866v69.873c0 4.819-4.819 12.047-12.047 12.047h-21.685c-4.819 0-12.047-4.819-12.047-12.047v-69.873c0-9.638-7.228-16.866-16.866-16.866h-4.819c-9.638 0-16.866 7.228-16.866 16.866v101.195c0 0 0 7.228 0 7.228s0 0 0 0v91.558c0 0 0 0 0 0l-79.511 55.416c-4.819 4.819-7.228 12.047-2.409 16.866l2.409 4.819c4.819 4.819 12.047 7.228 16.866 2.409 0 0 79.511-43.369 86.739-43.369h74.692c7.228 0 79.511 48.188 79.511 48.188 4.819 4.819 14.456 4.819 19.275 0l2.409-4.819c4.819-4.819 4.819-14.456 0-19.275l-72.282-65.054c-2.409-2.409-2.409-2.409-4.819-2.409v-86.739c0 4.819 0-2.409 0-4.819zM534.889 287.774v-163.84c0-14.456-12.047-24.094-24.094-24.094h-9.638c-14.456 0-24.094 12.047-24.094 24.094v139.746c0 12.047-9.638 21.685-21.685 21.685h-7.228c-12.047 0-21.685-9.638-21.685-21.685v-142.155c0-12.047-7.228-19.275-19.275-24.094 0 4.819 2.409 7.228 2.409 12.047v106.014c0 2.409 0 4.819 0 7.228v72.282l72.282 65.054c16.866 14.456 19.275 40.96 2.409 57.826l-4.819 4.819c-7.228 7.228-16.866 12.047-26.504 14.456s-21.685-2.409-26.504-7.228c-9.638-4.819-16.866-12.047-26.504-16.866 0 4.819 0 9.638 0 12.047 0 48.188-38.551 84.329-84.329 84.329-33.732 0 55.416 89.148 55.416 89.148 4.819 9.638 14.456 16.866 24.094 16.866h110.833c0 0 0 0 0 0 9.638 0 16.866-2.409 24.094-9.638l45.779-60.235c4.819-7.228 4.819-14.456 2.409-24.094l-43.369-115.652c-2.409 0-4.819 0-4.819 0-9.638-2.409-19.275-7.228-26.504-14.456l-2.409-4.819c-14.456-16.866-9.638-43.369 7.228-55.416l28.913-21.685v-21.685zM698.729 282.955v-171.068c0-7.228-4.819-12.047-12.047-12.047h-12.047c-7.228 0-12.047 4.819-12.047 12.047v53.007c0 7.228-7.228 14.456-14.456 14.456h-9.638c-7.228 0-14.456-7.228-14.456-14.456v-55.416c0-7.228-4.819-12.047-12.047-12.047h-12.047c-7.228 0-12.047 4.819-12.047 12.047v175.887c0 7.228-2.409 14.456-9.638 19.275l-53.007 40.96c-4.819 4.819-7.228 12.047-2.409 16.866l2.409 4.819c4.819 4.819 12.047 7.228 16.866 2.409 0 0 65.054-45.779 67.464-45.779h65.054c2.409 0 69.873 45.779 69.873 45.779 4.819 4.819 12.047 2.409 16.866-2.409l2.409-4.819c4.819-4.819 2.409-12.047-2.409-16.866l-55.416-43.369c-4.819-4.819-7.228-12.047-7.228-19.275zM595.125 396.198c0 28.913 21.685 50.598 50.598 50.598s50.598-21.685 50.598-50.598c0-28.913-21.685-50.598-50.598-50.598s-50.598 21.685-50.598 50.598zM780.649 287.774v-163.84c0-14.456-12.047-24.094-24.094-24.094h-9.638c-7.228 0-12.047 2.409-16.866 7.228 0 0 0 0 0 0v175.887l50.598 40.96v-36.141zM845.704 381.741l-7.228-2.409c-9.638-4.819-19.275 0-24.094 9.638l-33.732 38.551v-28.913c-4.819 2.409-9.638 4.819-16.866 4.819-9.638 2.409-21.685-2.409-26.504-7.228-2.409 0-2.409-2.409-4.819-2.409 0 48.188-38.551 86.739-86.739 86.739-26.504 0-53.007-12.047-67.464-33.732-12.047-14.456 48.188 108.424 48.188 108.424 2.409 9.638 12.047 19.275 24.094 19.275h106.014c7.228 0 14.456-2.409 16.866-7.228 2.409-2.409 4.819-4.819 4.819-7.228l77.101-154.202c2.409-7.228 0-19.275-9.638-24.094z" />
<glyph unicode="&#xe903;" glyph-name="fitness" data-tags="fitness" d="M192.753 295.002l-16.866-4.819c-14.456-4.819-31.322 4.819-36.141 21.685l-19.275 72.282c-4.819 14.456 4.819 31.322 21.685 36.141l16.866 4.819c14.456 4.819 31.322-4.819 33.732-21.685l19.275-72.282c4.819-14.456-4.819-31.322-19.275-36.141zM296.358 254.042l-16.866-4.819c-14.456-4.819-31.322 4.819-36.141 21.685l-50.598 202.391c-4.819 14.456 4.819 31.322 21.685 36.141l16.866 4.819c14.456 4.819 31.322-4.819 36.141-21.685l53.007-202.391c0-16.866-7.228-31.322-24.094-36.141zM397.553 232.358l-16.866-4.819c-14.456-4.819-31.322 4.819-36.141 21.685l-74.692 289.129c-4.819 14.456 4.819 31.322 21.685 36.141l16.866 4.819c14.456 4.819 31.322-4.819 36.141-21.685l74.692-289.129c2.409-14.456-7.228-31.322-21.685-36.141zM404.781 369.694l-24.094 91.558 236.122 60.235 24.094-91.558-236.122-60.235zM732.461 321.506l-16.866-4.819c-14.456-4.819-31.322 4.819-36.141 21.685l-74.692 289.129c-4.819 14.456 4.819 31.322 21.685 36.141l16.866 4.819c14.456 4.819 31.322-4.819 36.141-21.685l74.692-289.129c4.819-16.866-4.819-33.732-21.685-36.141zM809.562 386.56l-14.456-2.409c-14.456-4.819-31.322 4.819-36.141 21.685l-53.007 202.391c-4.819 14.456 4.819 31.322 21.685 36.141l16.866 4.819c14.456 4.819 31.322-4.819 36.141-21.685l53.007-202.391c0-16.866-7.228-33.732-24.094-38.551zM881.845 475.708l-16.866-4.819c-14.456-4.819-31.322 4.819-36.141 21.685l-19.275 72.282c-4.819 14.456 4.819 31.322 21.685 36.141l16.866 4.819c14.456 4.819 31.322-4.819 36.141-21.685l19.275-72.282c2.409-16.866-7.228-33.732-21.685-36.141z" />
<glyph unicode="&#xe904;" glyph-name="hallenbad" data-tags="hallenbad" d="M207.209 714.24l279.492 86.739c16.866 4.819 33.732 4.819 50.598 0l272.264-89.148c14.456-4.819 21.685-19.275 16.866-33.732-4.819-12.047-14.456-19.275-26.504-19.275-2.409 0-4.819 0-9.638 2.409l-269.854 89.148c-4.819 2.409-12.047 2.409-19.275 0l-277.082-89.148c-14.456-4.819-31.322 2.409-33.732 19.275-7.228 14.456 2.409 31.322 16.866 33.732zM481.882 454.024c-9.638 21.685-38.551 81.92-38.551 81.92s-16.866 36.141 12.047 43.369c33.732 9.638 226.485 50.598 226.485 50.598s26.504 4.819 33.732-12.047c4.819-16.866-12.047-28.913-24.094-31.322s-168.659-38.551-168.659-38.551l108.424-207.209-14.456-4.819c0 0-2.409 0-2.409 0-2.409 0-7.228-2.409-9.638-2.409s-7.228-2.409-9.638-4.819c-2.409 0-2.409-2.409-2.409-2.409-4.819-2.409-7.228-4.819-12.047-7.228l-28.913-21.685c-24.094-16.866-55.416-16.866-79.511 2.409l-28.913 24.094c-36.141 31.322-89.148 31.322-127.699 2.409l-28.913-21.685c0 0-2.409 0-2.409-2.409-19.275-12.047-36.141-9.638-57.826 0l248.169 127.699c-2.409-2.409 16.866 7.228 7.228 24.094zM609.581 454.024c0 43.369 36.141 77.101 79.511 74.692 43.369 0 77.101-36.141 74.692-79.511 0-43.369-36.141-77.101-79.511-74.692-43.369 0-77.101 36.141-74.692 79.511zM183.115 234.767c12.047 14.456 24.094 4.819 24.094 4.819 24.094-19.275 55.416-19.275 79.511 0l28.913 21.685c38.551 28.913 89.148 28.913 127.699 0l28.913-21.685c24.094-19.275 55.416-19.275 79.511 0l28.913 21.685c38.551 28.913 89.148 28.913 127.699 0l28.913-21.685c24.094-19.275 55.416-19.275 79.511 0 0 0 16.866 12.047 26.504-4.819 12.047-16.866-2.409-26.504-2.409-26.504-38.551-28.913-89.148-28.913-127.699 0l-28.913 21.685c-24.094 19.275-55.416 19.275-79.511 0l-28.913-21.685c-19.275-14.456-40.96-21.685-62.645-21.685s-45.779 7.228-62.645 21.685l-28.913 21.685c-24.094 19.275-55.416 19.275-79.511 0l-28.913-21.685c-38.551-28.913-89.148-28.913-127.699 0 0 0-14.456 12.047-2.409 26.504zM838.475 111.887c-38.551-28.913-89.148-28.913-127.699 0l-28.913 21.685c-24.094 19.275-55.416 19.275-79.511 0l-28.913-21.685c-19.275-14.456-40.96-21.685-62.645-21.685s-45.779 7.228-62.645 21.685l-28.913 21.685c-24.094 19.275-55.416 19.275-79.511 0l-28.913-21.685c-38.551-28.913-89.148-28.913-127.699 0 0 0-12.047 14.456 0 26.504 12.047 14.456 24.094 2.409 24.094 2.409 24.094-19.275 55.416-19.275 79.511 0l28.913 21.685c38.551 28.913 89.148 28.913 127.699 0l28.913-21.685c24.094-19.275 55.416-19.275 79.511 0l28.913 21.685c38.551 28.913 89.148 28.913 127.699 0l28.913-21.685c24.094-19.275 55.416-19.275 79.511 0 0 0 16.866 12.047 26.504 0 7.228-12.047 2.409-26.504-4.819-28.913z" />
<glyph unicode="&#xe905;" glyph-name="nichtraucher" data-tags="nichtraucher" d="M240.941 480.527h125.289l91.558-101.195h-216.847c-14.456 0-26.504 12.047-26.504 26.504v48.188c0 14.456 12.047 26.504 26.504 26.504zM626.447 379.332h28.913v101.195h-125.289l96.376-101.195zM905.939 446.795c0-216.847-175.887-392.734-392.734-392.734s-392.734 175.887-392.734 392.734 175.887 395.144 392.734 395.144c216.847 0 392.734-178.296 392.734-395.144zM705.958 155.256l-465.016 515.614c-50.598-60.235-79.511-139.746-79.511-224.075 0-192.753 156.612-351.774 351.774-351.774 69.873 2.409 137.336 21.685 192.753 60.235zM862.569 446.795c0 192.753-156.612 351.774-351.774 351.774-89.148 0-171.068-33.732-231.304-89.148l469.835-520.433c69.873 65.054 113.242 156.612 113.242 257.807zM787.878 480.527h-84.329v-101.195h84.329c14.456 0 26.504 12.047 26.504 26.504v48.188c-2.409 14.456-14.456 26.504-26.504 26.504zM737.28 504.621c57.826 57.826 21.685 113.242-36.141 127.699-53.007 14.456-101.195 26.504-81.92 89.148-67.464-62.645-14.456-113.242 43.369-125.289 55.416-9.638 84.329-38.551 74.692-91.558z" />
<glyph unicode="&#xe906;" glyph-name="parkgarage" data-tags="parkgarage" d="M561.393 598.588c-67.464 0-134.927 0-204.8 0 0 0-2.409 0-2.409 0 0-159.021 0-318.042 0-477.064 31.322 0 60.235 0 91.558 0 0 53.007 0 103.605 0 156.612 2.409 0 4.819 0 4.819 0 33.732 0 65.054 0 98.786 0 9.638 0 19.275 0 28.913 2.409 69.873 12.047 127.699 77.101 132.518 149.384 2.409 43.369-12.047 84.329-40.96 115.652s-65.054 50.598-108.424 53.007zM568.621 367.285c-4.819-2.409-12.047-2.409-16.866-2.409-33.732 0-65.054 0-98.786 0-2.409 0-2.409 0-4.819 0 0 48.188 0 96.376 0 144.565 14.456 0 28.913 0 43.369 0 19.275 0 38.551 0 55.416 0 33.732 0 62.645-24.094 69.873-53.007 9.638-38.551-12.047-77.101-48.188-89.148zM831.247 646.776c-4.819-12.047-14.456-19.275-26.504-19.275-2.409 0-4.819 0-9.638 2.409l-269.854 89.148c-4.819 2.409-12.047 2.409-19.275 0l-279.492-89.148c-14.456-4.819-31.322 2.409-33.732 19.275-4.819 14.456 2.409 31.322 19.275 33.732l279.492 86.739c16.866 4.819 33.732 4.819 50.598 0l272.264-89.148c14.456-2.409 21.685-16.866 16.866-33.732z" />
<glyph unicode="&#xe907;" glyph-name="parkplatz" data-tags="parkplatz" d="M667.407 656.414c-31.322 36.141-72.282 57.826-120.471 60.235-77.101 0-154.202 0-228.894 0-2.409 0-2.409 0-4.819 0 0-178.296 0-359.002 0-537.299 33.732 0 69.873 0 103.605 0 0 57.826 0 118.061 0 175.887 2.409 0 4.819 0 4.819 0 36.141 0 74.692 0 110.833 0 9.638 0 21.685 0 31.322 2.409 79.511 12.047 144.565 86.739 149.384 166.249 2.409 50.598-14.456 93.967-45.779 132.518zM554.165 456.433c-7.228-2.409-12.047-2.409-19.275-2.409-36.141 0-74.692 0-110.833 0-2.409 0-4.819 0-7.228 0 0 53.007 0 108.424 0 161.431 16.866 0 33.732 0 48.188 0 21.685 0 43.369 0 62.645 0 38.551 0 69.873-26.504 79.511-60.235 12.047-43.369-12.047-86.739-53.007-98.786z" />
<glyph unicode="&#xe908;" glyph-name="sauna" data-tags="sauna" d="M785.468 584.132l-7.228-36.141-53.007-286.72c-2.409-14.456-12.047-26.504-24.094-26.504h-161.431c2.409 16.866 4.819 31.322 7.228 45.779 2.409 19.275 53.007 137.336 55.416 146.974 28.913 67.464 65.054 98.786 65.054 98.786 19.275 19.275 60.235 67.464 77.101 84.329h14.456c14.456 0 28.913-12.047 26.504-26.504zM628.856 543.172c-43.369-48.188-113.242-216.847-115.652-252.988-28.913-236.122-269.854-178.296-272.264-24.094 28.913 60.235 110.833-2.409 199.981 48.188 28.913 16.866 45.779 45.779 65.054 89.148 53.007 115.652 74.692 173.478 154.202 279.492 40.96 55.416 101.195 9.638 67.464-31.322-19.275-26.504-74.692-81.92-98.786-108.424zM460.198 287.774c-38.551-21.685-91.558-45.779-166.249-28.913-4.819 0-26.504-4.819-16.866-19.275 19.275-28.913 57.826-40.96 89.148-36.141 69.873 9.638 96.376 50.598 93.967 84.329zM568.621 610.635c-14.456-21.685-26.504-40.96-38.551-62.645 0 0-60.235-127.699-69.873-146.974s-19.275-36.141-28.913-48.188c-16.866-19.275-67.464-28.913-106.014-24.094-7.228 0-7.228 0-7.228 0l-21.685 106.014-21.685 115.652-4.819 36.141c-2.409 14.456 9.638 26.504 24.094 26.504 9.638 0 16.866 0 26.504 0 57.826 0 21.685 14.456 4.819 69.873-2.409 9.638-7.228 19.275 0 26.504l53.007 50.598c7.228 7.228 36.141 7.228 43.369 0l48.188-50.598c7.228-7.228 2.409-16.866 0-26.504-19.275-57.826-50.598-72.282 7.228-72.282h91.558zM426.466 690.146c0 19.275-12.047 28.913-28.913 28.913s-28.913-9.638-28.913-28.913c0-19.275 12.047-28.913 28.913-28.913s28.913 9.638 28.913 28.913z" />
<glyph unicode="&#xe909;" glyph-name="schwimmbad" data-tags="schwimmbad" d="M763.784 538.353c0-43.369-36.141-77.101-79.511-74.692-43.369 0-77.101 36.141-74.692 79.511 0 43.369 36.141 77.101 79.511 74.692 40.96-2.409 77.101-36.141 74.692-79.511zM481.882 543.172c-9.638 21.685-38.551 81.92-38.551 81.92s-16.866 36.141 12.047 43.369c33.732 9.638 226.485 50.598 226.485 50.598s26.504 4.819 33.732-12.047c4.819-16.866-12.047-28.913-24.094-31.322s-168.659-38.551-168.659-38.551l108.424-207.209-14.456-4.819c0 0-2.409 0-2.409 0-2.409 0-7.228-2.409-9.638-2.409s-7.228-2.409-9.638-4.819c-2.409 0-2.409-2.409-2.409-2.409-4.819-2.409-7.228-4.819-12.047-7.228l-28.913-21.685c-24.094-16.866-55.416-16.866-79.511 2.409l-28.913 24.094c-36.141 31.322-89.148 31.322-127.699 2.409l-28.913-21.685c0 0-2.409 0-2.409-2.409-19.275-12.047-36.141-9.638-57.826 0l248.169 127.699c-2.409-2.409 16.866 7.228 7.228 24.094zM183.115 321.506c12.047 14.456 24.094 4.819 24.094 4.819 24.094-19.275 55.416-19.275 79.511 0l28.913 21.685c38.551 28.913 89.148 28.913 127.699 0l28.913-21.685c24.094-19.275 55.416-19.275 79.511 0l28.913 21.685c38.551 28.913 89.148 28.913 127.699 0l28.913-21.685c24.094-19.275 55.416-19.275 79.511 0 0 0 16.866 12.047 26.504-4.819 12.047-16.866-2.409-26.504-2.409-26.504-38.551-28.913-89.148-28.913-127.699 0l-28.913 21.685c-24.094 19.275-55.416 19.275-79.511 0l-28.913-21.685c-19.275-14.456-40.96-21.685-62.645-21.685s-45.779 7.228-62.645 21.685l-28.913 21.685c-24.094 19.275-55.416 19.275-79.511 0l-28.913-21.685c-38.551-28.913-89.148-28.913-127.699 0 0 2.409-14.456 12.047-2.409 26.504zM838.475 198.626c-38.551-28.913-89.148-28.913-127.699 0l-28.913 21.685c-24.094 19.275-55.416 19.275-79.511 0l-28.913-21.685c-19.275-14.456-40.96-21.685-62.645-21.685s-45.779 7.228-62.645 21.685l-28.913 21.685c-24.094 19.275-55.416 19.275-79.511 0l-28.913-21.685c-38.551-28.913-89.148-28.913-127.699 0 0 0-12.047 14.456 0 26.504s24.094 2.409 24.094 2.409c24.094-19.275 55.416-19.275 79.511 0l28.913 21.685c38.551 28.913 89.148 28.913 127.699 0l28.913-21.685c24.094-19.275 55.416-19.275 79.511 0l28.913 21.685c38.551 28.913 89.148 28.913 127.699 0l28.913-21.685c24.094-19.275 55.416-19.275 79.511 0 0 0 16.866 12.047 26.504 0 7.228-12.047 2.409-24.094-4.819-28.913z" />
<glyph unicode="&#xe90a;" glyph-name="skigebiet" data-tags="skigebiet" d="M660.179 658.824c-14.456 40.96 14.456 79.511 53.007 79.511 31.322 2.409 60.235-24.094 62.645-55.416 2.409-48.188-60.235-91.558-106.014-40.96-4.819 4.819-7.228 12.047-9.638 16.866zM590.306 576.904l-96.376-33.732 118.061-53.007c21.685-9.638 28.913-31.322 28.913-31.322 12.047-43.369-36.141-115.652-57.826-187.934l4.819-2.409c57.826-21.685 108.424-53.007 161.431-50.598 7.228 0 14.456-4.819 16.866-16.866 0-9.638-2.409-14.456-21.685-19.275-24.094-9.638-53.007-7.228-77.101 4.819-55.416 26.504-127.699 55.416-192.753 81.92l-7.228 2.409c-4.819-12.047-9.638-24.094-16.866-36.141l7.228-2.409c146.974-60.235 151.793-77.101 221.666-74.692 9.638 0 24.094 0 28.913-9.638 7.228-14.456-4.819-26.504-21.685-28.913-36.141-4.819-53.007-2.409-79.511 7.228-108.424 40.96-219.256 89.148-327.68 132.518l-48.188 16.866c0 0-7.228 7.228 0 14.456s19.275 16.866 19.275 16.866 4.819 4.819 19.275-2.409c0 0 72.282-26.504 110.833-43.369 7.228 12.047 12.047 21.685 19.275 33.732l4.819-2.409c-26.504 12.047-65.054 26.504-89.148 38.551-7.228 2.409-2.409 7.228-2.409 7.228s21.685 19.275 24.094 19.275c7.228 4.819 14.456 0 14.456 0 24.094-7.228 38.551-16.866 69.873-28.913 14.456 28.913 38.551 93.967 38.551 93.967-31.322 24.094-50.598 38.551-81.92 62.645-48.188 38.551-43.369 91.558 12.047 118.061 16.866 7.228 31.322 14.456 53.007 24.094-48.188 28.913-91.558 55.416-132.518 81.92 0 0 4.819-2.409-31.322 19.275 0 0 0 0 0 0-7.228-9.638-16.866-16.866-24.094-12.047-7.228 2.409-7.228 16.866-2.409 28.913-16.866 12.047-24.094 16.866-21.685 21.685s14.456 0 28.913-7.228c7.228 12.047 19.275 19.275 24.094 14.456 7.228-2.409 7.228-14.456 2.409-28.913 2.409 0 2.409-2.409 2.409-2.409 2.409-2.409 28.913-16.866 28.913-16.866 43.369-26.504 84.329-53.007 130.108-77.101 9.638-4.819 24.094-4.819 36.141-2.409 24.094 7.228 45.779 21.685 69.873 31.322 50.598 21.685 79.511-2.409 93.967-60.235 2.409-7.228 24.094-69.873 24.094-74.692 4.819-14.456 14.456-16.866 28.913-19.275 12.047-2.409 72.282 4.819 79.511 4.819s14.456-9.638 12.047-26.504-9.638-19.275-43.369-24.094c-31.322-4.819-72.282-2.409-86.739 0s-28.913 24.094-28.913 24.094c-16.866 24.094-43.369 74.692-43.369 74.692zM484.292 309.459l9.638-4.819c4.819-2.409 21.685-9.638 36.141-14.456l4.819 12.047c14.456 50.598 31.322 79.511 40.96 125.289 2.409 4.819-2.409 12.047-7.228 14.456-19.275 7.228-26.504 7.228-40.96 16.866 24.094-16.866-31.322-120.471-43.369-149.384z" />
<glyph unicode="&#xe90b;" glyph-name="wellness" data-tags="wellness" d="M761.374 608.226c4.819 0 7.228-4.819 4.819-7.228-9.638-26.504-26.504-81.92-33.732-122.88-9.638-26.504-16.866-137.336-187.934-166.249 0 21.685-2.409 31.322-14.456 106.014 0 2.409 0 2.409 0 4.819 12.047 19.275 69.873 175.887 231.304 185.525zM513.205 237.176c113.242 0 231.304 31.322 231.304 65.054 0 4.819-2.409 9.638-7.228 14.456-9.638 9.638-38.551 38.551-7.228 21.685 24.094-12.047 36.141-26.504 36.141-40.96 0-43.369-115.652-84.329-255.398-84.329-142.155 0-255.398 40.96-255.398 84.329 0 14.456 12.047 26.504 33.732 38.551 36.141 19.275 7.228-7.228-2.409-19.275-4.819-4.819-4.819-9.638-4.819-14.456-2.409-31.322 115.652-65.054 231.304-65.054zM505.976 747.972c2.409 2.409 7.228 2.409 9.638 0 69.873-67.464 74.692-137.336 74.692-166.249 0-4.819-2.409-7.228-4.819-9.638-14.456-14.456-48.188-60.235-65.054-86.739-4.819-4.819-12.047-4.819-14.456 0-14.456 26.504-43.369 60.235-65.054 84.329-2.409 2.409-2.409 4.819-4.819 7.228-9.638 89.148 50.598 151.793 69.873 171.068zM262.626 613.045c238.532-31.322 248.169-260.216 243.351-298.767-183.115 4.819-209.619 144.565-219.256 183.115-7.228 62.645-21.685 93.967-28.913 108.424-4.819 2.409 0 7.228 4.819 7.228zM513.205 145.619c-228.894 0-416.828 65.054-416.828 127.699 0 36.141 60.235 67.464 154.202 86.739 53.007 12.047 36.141 2.409-2.409-7.228-55.416-16.866-91.558-38.551-91.558-62.645 0-53.007 166.249-110.833 356.593-110.833s354.184 48.188 354.184 101.195c0 26.504-16.866 38.551-69.873 65.054-33.732 14.456-72.282 26.504-14.456 14.456 91.558-19.275 149.384-50.598 149.384-84.329-2.409-40.96-192.753-130.108-419.238-130.108z" />
<glyph unicode="&#xe90c;" glyph-name="whirlpool" data-tags="whirlpool" d="M795.106 615.454c0-14.456-12.047-26.504-26.504-26.504s-26.504 12.047-26.504 26.504c0 14.456 12.047 26.504 26.504 26.504 14.456 2.409 26.504-9.638 26.504-26.504zM746.918 531.125c0-16.866-14.456-31.322-31.322-31.322s-31.322 14.456-31.322 31.322c0 16.866 14.456 31.322 31.322 31.322s31.322-12.047 31.322-31.322zM742.099 786.522c24.094 0 43.369-19.275 43.369-43.369s-19.275-43.369-43.369-43.369c-24.094 0-43.369 19.275-43.369 43.369s19.275 43.369 43.369 43.369zM684.273 670.871c12.047 0 21.685-9.638 21.685-21.685s-9.638-21.685-21.685-21.685c-12.047 0-21.685 9.638-21.685 21.685s9.638 21.685 21.685 21.685zM522.842 615.454c33.732 0 62.645-28.913 62.645-62.645s-28.913-62.645-62.645-62.645c-33.732 0-62.645 28.913-62.645 62.645 0 36.141 28.913 62.645 62.645 62.645zM404.781 396.198c0 40.96 33.732 74.692 74.692 74.692h89.148c40.96 0 74.692-33.732 74.692-74.692v-31.322c0 0-53.007-2.409-120.471-2.409s-120.471 2.409-120.471 2.409v31.322zM855.341 268.499c0-38.551 0-33.732 0-72.282 0-9.638-7.228-19.275-16.866-24.094-43.369-16.866-84.329-38.551-127.699-55.416-9.638-4.819-28.913-7.228-40.96-7.228-101.195 0-202.391 0-303.586 0-19.275 0-38.551 2.409-55.416 9.638-40.96 16.866-81.92 36.141-122.88 53.007-12.047 4.819-19.275 14.456-19.275 24.094 0 53.007 0 65.054 0 118.061 0 16.866 7.228 26.504 24.094 33.732 40.96 16.866 55.416 21.685 98.786 36.141 24.094 7.228 53.007 16.866 72.282 24.094v-38.551c-9.638-4.819-77.101-19.275-118.061-36.141-7.228-2.409-7.228-9.638 0-12.047 43.369-21.685 89.148-43.369 137.336-43.369 69.873 0 134.927 0 197.572 0 115.652 0 122.88 4.819 202.391 45.779 4.819 2.409 4.819 9.638 0 12.047-19.275 7.228-45.779 16.866-62.645 21.685-9.638 2.409-33.732 9.638-43.369 14.456v38.551l72.282-26.504c4.819-2.409 31.322-12.047 38.551-14.456 67.464-21.685 69.873-45.779 67.464-101.195z" />
<glyph unicode="&#xe90d;" glyph-name="wlan" data-tags="wlan" d="M510.795 176.941c-31.322 0-57.826 26.504-57.826 57.826s26.504 57.826 57.826 57.826c31.322 0 57.826-26.504 57.826-57.826s-26.504-57.826-57.826-57.826zM655.36 326.325c-7.228-4.819-14.456-9.638-21.685-9.638-9.638 0-16.866 2.409-24.094 9.638-26.504 26.504-62.645 43.369-98.786 43.369s-72.282-14.456-98.786-40.96c-12.047-12.047-31.322-12.047-45.779 0-12.047 12.047-12.047 31.322 0 45.779 38.551 38.551 89.148 62.645 144.565 62.645s108.424-24.094 144.565-62.645c12.047-16.866 12.047-36.141 0-48.188zM758.965 425.111c-12.047-12.047-33.732-12.047-45.779 0-53.007 55.416-125.289 86.739-202.391 86.739s-149.384-31.322-202.391-86.739c-7.228-7.228-14.456-9.638-24.094-9.638-7.228 0-16.866 2.409-21.685 9.638-12.047 12.047-12.047 31.322 0 45.779 65.054 67.464 154.202 106.014 248.169 106.014s183.115-38.551 248.169-106.014c12.047-12.047 12.047-31.322 0-45.779zM862.569 523.896c-12.047-12.047-33.732-12.047-45.779 0-79.511 84.329-187.934 130.108-303.586 130.108s-224.075-45.779-303.586-130.108c-7.228-7.228-14.456-9.638-24.094-9.638-7.228 0-16.866 2.409-21.685 9.638-12.047 12.047-12.047 31.322 0 45.779 93.967 96.376 216.847 149.384 349.365 149.384s257.807-53.007 349.365-149.384c12.047-12.047 12.047-33.732 0-45.779z" />
<glyph unicode="&#xea0c;" glyph-name="info" data-tags="info, information" d="M448 656c0 26.4 21.6 48 48 48h32c26.4 0 48-21.6 48-48v-32c0-26.4-21.6-48-48-48h-32c-26.4 0-48 21.6-48 48v32zM640 192h-256v64h64v192h-64v64h192v-256h64zM512 960c-282.77 0-512-229.23-512-512s229.23-512 512-512 512 229.23 512 512-229.23 512-512 512zM512 32c-229.75 0-416 186.25-416 416s186.25 416 416 416 416-186.25 416-416-186.25-416-416-416z" />
<glyph unicode="&#xea23;" glyph-name="previous2" data-tags="previous, player" d="M256 64v768h128v-352l320 320v-704l-320 320v-352z" />
<glyph unicode="&#xea24;" glyph-name="next2" data-tags="next, player" d="M768 832v-768h-128v352l-320-320v704l320-320v352z" />
<glyph unicode="&#xea25;" glyph-name="previous" data-tags="previous, player" d="M256 64v768h128v-352l320 320v-704l-320 320v-352z" />
<glyph unicode="&#xea26;" glyph-name="next" data-tags="next, player" d="M768 832v-768h-128v352l-320-320v704l320-320v352z" />
<glyph unicode="&#xea8b;" glyph-name="google-plus" data-tags="google-plus, brand, social" d="M325.8 502.6v-111.8h184.8c-7.4-48-55.8-140.6-184.8-140.6-111.2 0-202 92.2-202 205.8s90.8 205.8 202 205.8c63.4 0 105.6-27 129.8-50.2l88.4 85.2c-56.8 53-130.4 85.2-218.2 85.2-180.2-0.2-325.8-145.8-325.8-326s145.6-325.8 325.8-325.8c188 0 312.8 132.2 312.8 318.4 0 21.4-2.4 37.8-5.2 54h-307.6zM1024 512h-96v96h-96v-96h-96v-96h96v-96h96v96h96z" />
<glyph unicode="&#xea8c;" glyph-name="google-plus2" data-tags="google-plus, brand, social" d="M325.8 502.6v-111.8h184.8c-7.4-48-55.8-140.6-184.8-140.6-111.2 0-202 92.2-202 205.8s90.8 205.8 202 205.8c63.4 0 105.6-27 129.8-50.2l88.4 85.2c-56.8 53-130.4 85.2-218.2 85.2-180.2-0.2-325.8-145.8-325.8-326s145.6-325.8 325.8-325.8c188 0 312.8 132.2 312.8 318.4 0 21.4-2.4 37.8-5.2 54h-307.6zM1024 512h-96v96h-96v-96h-96v-96h96v-96h96v96h96z" />
<glyph unicode="&#xea91;" glyph-name="twitter" data-tags="twitter" d="M1024 765.582c-37.676-16.708-78.164-28.002-120.66-33.080 43.372 26 76.686 67.17 92.372 116.23-40.596-24.078-85.556-41.56-133.41-50.98-38.32 40.83-92.922 66.34-153.346 66.34-116.022 0-210.088-94.058-210.088-210.078 0-16.466 1.858-32.5 5.44-47.878-174.6 8.764-329.402 92.4-433.018 219.506-18.084-31.028-28.446-67.116-28.446-105.618 0-72.888 37.088-137.192 93.46-174.866-34.438 1.092-66.832 10.542-95.154 26.278-0.020-0.876-0.020-1.756-0.020-2.642 0-101.788 72.418-186.696 168.522-206-17.626-4.8-36.188-7.372-55.348-7.372-13.538 0-26.698 1.32-39.528 3.772 26.736-83.46 104.32-144.206 196.252-145.896-71.9-56.35-162.486-89.934-260.916-89.934-16.958 0-33.68 0.994-50.116 2.94 92.972-59.61 203.402-94.394 322.042-94.394 386.422 0 597.736 320.124 597.736 597.744 0 9.108-0.206 18.168-0.61 27.18 41.056 29.62 76.672 66.62 104.836 108.748z" />
<glyph unicode="&#xf004;" glyph-name="heart" data-tags="heart" d="M512 0q-14.857 0-25.143 10.286l-356.571 344q-5.714 4.571-15.714 14.857t-31.714 37.429-38.857 55.714-30.571 69.143-13.429 78.857q0 125.714 72.571 196.571t200.571 70.857q35.429 0 72.286-12.286t68.571-33.143 54.571-39.143 43.429-38.857q20.571 20.571 43.429 38.857t54.571 39.143 68.571 33.143 72.286 12.286q128 0 200.571-70.857t72.571-196.571q0-126.286-130.857-257.143l-356-342.857q-10.286-10.286-25.143-10.286z" />
<glyph unicode="&#xf005;" glyph-name="heart2" data-tags="heart" d="M512 0q-14.857 0-25.143 10.286l-356.571 344q-5.714 4.571-15.714 14.857t-31.714 37.429-38.857 55.714-30.571 69.143-13.429 78.857q0 125.714 72.571 196.571t200.571 70.857q35.429 0 72.286-12.286t68.571-33.143 54.571-39.143 43.429-38.857q20.571 20.571 43.429 38.857t54.571 39.143 68.571 33.143 72.286 12.286q128 0 200.571-70.857t72.571-196.571q0-126.286-130.857-257.143l-356-342.857q-10.286-10.286-25.143-10.286z" />
<glyph unicode="&#xf05a;" glyph-name="info-circle" data-tags="info-circle" d="M585.143 164.571v91.429q0 8-5.143 13.143t-13.143 5.143h-54.857v292.571q0 8-5.143 13.143t-13.143 5.143h-182.857q-8 0-13.143-5.143t-5.143-13.143v-91.429q0-8 5.143-13.143t13.143-5.143h54.857v-182.857h-54.857q-8 0-13.143-5.143t-5.143-13.143v-91.429q0-8 5.143-13.143t13.143-5.143h256q8 0 13.143 5.143t5.143 13.143zM512 676.571v91.429q0 8-5.143 13.143t-13.143 5.143h-109.714q-8 0-13.143-5.143t-5.143-13.143v-91.429q0-8 5.143-13.143t13.143-5.143h109.714q8 0 13.143 5.143t5.143 13.143zM877.714 438.857q0-119.429-58.857-220.286t-159.714-159.714-220.286-58.857-220.286 58.857-159.714 159.714-58.857 220.286 58.857 220.286 159.714 159.714 220.286 58.857 220.286-58.857 159.714-159.714 58.857-220.286z" />
<glyph unicode="&#xf0d9;" glyph-name="caret-left" data-tags="caret-left" horiz-adv-x="366" d="M365.714 694.857v-512q0-14.857-10.857-25.714t-25.714-10.857-25.714 10.857l-256 256q-10.857 10.857-10.857 25.714t10.857 25.714l256 256q10.857 10.857 25.714 10.857t25.714-10.857 10.857-25.714z" />
<glyph unicode="&#xf0da;" glyph-name="caret-right" data-tags="caret-right" horiz-adv-x="366" d="M329.143 438.857q0-14.857-10.857-25.714l-256-256q-10.857-10.857-25.714-10.857t-25.714 10.857-10.857 25.714v512q0 14.857 10.857 25.714t25.714 10.857 25.714-10.857l256-256q10.857-10.857 10.857-25.714z" />
<glyph unicode="&#xf0db;" glyph-name="caret-left2" data-tags="caret-left" horiz-adv-x="366" d="M365.714 694.857v-512q0-14.857-10.857-25.714t-25.714-10.857-25.714 10.857l-256 256q-10.857 10.857-10.857 25.714t10.857 25.714l256 256q10.857 10.857 25.714 10.857t25.714-10.857 10.857-25.714z" />
<glyph unicode="&#xf0dc;" glyph-name="caret-right2" data-tags="caret-right" horiz-adv-x="366" d="M329.143 438.857q0-14.857-10.857-25.714l-256-256q-10.857-10.857-25.714-10.857t-25.714 10.857-10.857 25.714v512q0 14.857 10.857 25.714t25.714 10.857 25.714-10.857l256-256q10.857-10.857 10.857-25.714z" />
<glyph unicode="&#xe6010;" glyph-name="news" data-tags="news" d="M128 576l384 192 384-192-384-192-384 192zM752 608c0 0-49.568-32-128-32s-125.472 32-208 32-144-64-144-64 49.568 32 128 32c56.768 0 136.576-32 208-32s144 64 144 64zM512 352l384 192v-352c0-35.328-28.672-64-64-64h-640c-35.328 0-64 28.672-64 64v352l384-192z" />
<glyph unicode="&#xe6088;" glyph-name="facebook" data-tags="facebook" d="M704 672h-96c-19.904 0-32-2.784-32-32v-64h128v-128h-128v-352l-160.16 0.416 0.16 351.584h-96v128h96v96c0 93.536 31.328 128 128 128 18.496 0 160 0 160 0v-128z" />
</font>
</defs>
</svg>
